<svg width="375" height="812" viewBox="0 0 375 812" fill="none" xmlns="http://www.w3.org/2000/svg">
<rect width="375" height="812" fill="#FBF2EF"/>
<rect width="281" height="271" fill="#0069B3"/>
<rect x="188" y="609" width="187" height="68" fill="#ADD2EB"/>
<rect x="281" y="271" width="94" height="270" fill="#DC6D58"/>
<rect y="541" width="188" height="136" fill="#FECA33"/>
<rect y="677" width="188" height="135" fill="#DC6D58"/>
<path d="M33.92 377V355.08H39V364.48H38.64C38.64 362.24 38.92 360.373 39.48 358.88C40.0667 357.387 40.9467 356.267 42.12 355.52C43.2933 354.773 44.72 354.4 46.4 354.4H46.68C49.24 354.4 51.1867 355.24 52.52 356.92C53.88 358.573 54.56 361.093 54.56 364.48V377H48.16V364.12C48.16 362.947 47.8133 361.987 47.12 361.24C46.4267 360.493 45.4933 360.12 44.32 360.12C43.12 360.12 42.1467 360.507 41.4 361.28C40.68 362.027 40.32 363.013 40.32 364.24V377H33.92ZM70.6938 377.76C68.7738 377.76 67.0671 377.467 65.5738 376.88C64.0804 376.267 62.8138 375.44 61.7738 374.4C60.7604 373.36 59.9871 372.173 59.4538 370.84C58.9204 369.48 58.6538 368.053 58.6538 366.56V365.64C58.6538 364.12 58.9204 362.68 59.4538 361.32C60.0138 359.933 60.8138 358.72 61.8538 357.68C62.9204 356.64 64.2004 355.827 65.6938 355.24C67.1871 354.627 68.8538 354.32 70.6938 354.32C72.5871 354.32 74.2671 354.627 75.7338 355.24C77.2271 355.827 78.4938 356.64 79.5338 357.68C80.5738 358.72 81.3738 359.933 81.9338 361.32C82.4938 362.68 82.7738 364.12 82.7738 365.64V366.56C82.7738 368.053 82.5071 369.48 81.9738 370.84C81.4404 372.173 80.6538 373.36 79.6138 374.4C78.6004 375.44 77.3471 376.267 75.8538 376.88C74.3604 377.467 72.6404 377.76 70.6938 377.76ZM70.6938 372.36C71.9471 372.36 72.9871 372.093 73.8138 371.56C74.6404 371.027 75.2671 370.28 75.6938 369.32C76.1471 368.36 76.3738 367.293 76.3738 366.12C76.3738 364.867 76.1471 363.773 75.6938 362.84C75.2404 361.88 74.5871 361.12 73.7338 360.56C72.9071 360 71.8938 359.72 70.6938 359.72C69.5204 359.72 68.5071 360 67.6537 360.56C66.8004 361.12 66.1471 361.88 65.6938 362.84C65.2671 363.773 65.0538 364.867 65.0538 366.12C65.0538 367.293 65.2671 368.36 65.6938 369.32C66.1204 370.28 66.7604 371.027 67.6138 371.56C68.4671 372.093 69.4938 372.36 70.6938 372.36ZM94.6403 377.68C92.107 377.68 90.1603 376.867 88.8003 375.24C87.4403 373.587 86.7603 371.107 86.7603 367.8V355.08H93.1603V368.12C93.1603 369.293 93.4936 370.227 94.1603 370.92C94.827 371.613 95.7203 371.96 96.8403 371.96C97.987 371.96 98.9203 371.6 99.6403 370.88C100.36 370.16 100.72 369.187 100.72 367.96V355.08H107.12V377H102.04V367.76H102.48C102.48 369.973 102.187 371.827 101.6 373.32C101.04 374.787 100.2 375.88 99.0803 376.6C97.9603 377.32 96.5736 377.68 94.9203 377.68H94.6403ZM117.262 377L110.702 355.08H117.302L123.462 377H117.262ZM119.262 377V371.68H125.702V377H119.262ZM121.622 377L126.942 355.08H133.102L127.422 377H121.622ZM146.421 377.76C144.554 377.76 142.901 377.44 141.461 376.8C140.048 376.16 138.861 375.307 137.901 374.24C136.968 373.147 136.248 371.933 135.741 370.6C135.261 369.24 135.021 367.853 135.021 366.44V365.64C135.021 364.173 135.261 362.773 135.741 361.44C136.248 360.08 136.968 358.867 137.901 357.8C138.834 356.733 139.994 355.893 141.381 355.28C142.794 354.64 144.394 354.32 146.181 354.32C148.528 354.32 150.501 354.853 152.101 355.92C153.728 356.96 154.968 358.333 155.821 360.04C156.674 361.72 157.101 363.56 157.101 365.56V367.72H137.701V364.08H153.221L151.141 365.76C151.141 364.453 150.954 363.333 150.581 362.4C150.208 361.467 149.648 360.76 148.901 360.28C148.181 359.773 147.274 359.52 146.181 359.52C145.061 359.52 144.114 359.773 143.341 360.28C142.568 360.787 141.981 361.533 141.581 362.52C141.181 363.48 140.981 364.667 140.981 366.08C140.981 367.387 141.168 368.533 141.541 369.52C141.914 370.48 142.501 371.227 143.301 371.76C144.101 372.293 145.141 372.56 146.421 372.56C147.594 372.56 148.554 372.333 149.301 371.88C150.048 371.427 150.554 370.867 150.821 370.2H156.701C156.381 371.667 155.754 372.973 154.821 374.12C153.888 375.267 152.714 376.16 151.301 376.8C149.888 377.44 148.261 377.76 146.421 377.76ZM161.622 377V347.8H168.062V377H161.622ZM159.022 352.52V347.8H168.062V352.52H159.022ZM174.239 377V347.8H180.679V377H174.239ZM171.639 352.52V347.8H180.679V352.52H171.639ZM196.616 377.76C194.75 377.76 193.096 377.44 191.656 376.8C190.243 376.16 189.056 375.307 188.096 374.24C187.163 373.147 186.443 371.933 185.936 370.6C185.456 369.24 185.216 367.853 185.216 366.44V365.64C185.216 364.173 185.456 362.773 185.936 361.44C186.443 360.08 187.163 358.867 188.096 357.8C189.03 356.733 190.19 355.893 191.576 355.28C192.99 354.64 194.59 354.32 196.376 354.32C198.723 354.32 200.696 354.853 202.296 355.92C203.923 356.96 205.163 358.333 206.016 360.04C206.87 361.72 207.296 363.56 207.296 365.56V367.72H187.896V364.08H203.416L201.336 365.76C201.336 364.453 201.15 363.333 200.776 362.4C200.403 361.467 199.843 360.76 199.096 360.28C198.376 359.773 197.47 359.52 196.376 359.52C195.256 359.52 194.31 359.773 193.536 360.28C192.763 360.787 192.176 361.533 191.776 362.52C191.376 363.48 191.176 364.667 191.176 366.08C191.176 367.387 191.363 368.533 191.736 369.52C192.11 370.48 192.696 371.227 193.496 371.76C194.296 372.293 195.336 372.56 196.616 372.56C197.79 372.56 198.75 372.333 199.496 371.88C200.243 371.427 200.75 370.867 201.016 370.2H206.896C206.576 371.667 205.95 372.973 205.016 374.12C204.083 375.267 202.91 376.16 201.496 376.8C200.083 377.44 198.456 377.76 196.616 377.76ZM33.92 427V405.08H39V414.48H38.88C38.88 411.387 39.5333 409 40.84 407.32C42.1733 405.64 44.0933 404.8 46.6 404.8H47.44V410.32H45.84C44.08 410.32 42.72 410.8 41.76 411.76C40.8 412.693 40.32 414.053 40.32 415.84V427H33.92ZM60.6788 427.76C58.8121 427.76 57.1588 427.44 55.7188 426.8C54.3054 426.16 53.1188 425.307 52.1588 424.24C51.2254 423.147 50.5054 421.933 49.9988 420.6C49.5188 419.24 49.2788 417.853 49.2788 416.44V415.64C49.2788 414.173 49.5188 412.773 49.9988 411.44C50.5054 410.08 51.2254 408.867 52.1588 407.8C53.0921 406.733 54.2521 405.893 55.6388 405.28C57.0521 404.64 58.6521 404.32 60.4388 404.32C62.7854 404.32 64.7588 404.853 66.3588 405.92C67.9854 406.96 69.2254 408.333 70.0788 410.04C70.9321 411.72 71.3588 413.56 71.3588 415.56V417.72H51.9588V414.08H67.4788L65.3988 415.76C65.3988 414.453 65.2121 413.333 64.8388 412.4C64.4654 411.467 63.9054 410.76 63.1588 410.28C62.4388 409.773 61.5321 409.52 60.4388 409.52C59.3188 409.52 58.3721 409.773 57.5988 410.28C56.8254 410.787 56.2388 411.533 55.8388 412.52C55.4388 413.48 55.2388 414.667 55.2388 416.08C55.2388 417.387 55.4254 418.533 55.7988 419.52C56.1721 420.48 56.7588 421.227 57.5588 421.76C58.3588 422.293 59.3988 422.56 60.6788 422.56C61.8521 422.56 62.8121 422.333 63.5588 421.88C64.3054 421.427 64.8121 420.867 65.0788 420.2H70.9588C70.6388 421.667 70.0121 422.973 69.0788 424.12C68.1454 425.267 66.9721 426.16 65.5588 426.8C64.1454 427.44 62.5188 427.76 60.6788 427.76ZM57.2788 402.52L60.8788 394.16H67.4388L62.8788 402.52H57.2788ZM88.8397 427V420.52H87.7597V413.48C87.7597 412.36 87.493 411.52 86.9597 410.96C86.4264 410.4 85.573 410.12 84.3997 410.12C83.813 410.12 83.0397 410.133 82.0797 410.16C81.1197 410.187 80.133 410.227 79.1197 410.28C78.1064 410.333 77.1864 410.387 76.3597 410.44V405.04C76.973 404.987 77.693 404.933 78.5197 404.88C79.3464 404.827 80.1997 404.787 81.0797 404.76C81.9597 404.733 82.7864 404.72 83.5597 404.72C85.7997 404.72 87.6797 405.04 89.1997 405.68C90.7464 406.32 91.9197 407.293 92.7197 408.6C93.5197 409.88 93.9197 411.533 93.9197 413.56V427H88.8397ZM81.8397 427.56C80.2664 427.56 78.8797 427.28 77.6797 426.72C76.5064 426.16 75.5864 425.36 74.9197 424.32C74.253 423.253 73.9197 421.987 73.9197 420.52C73.9197 418.92 74.333 417.613 75.1597 416.6C75.9864 415.56 77.1464 414.8 78.6397 414.32C80.133 413.813 81.853 413.56 83.7997 413.56H88.4797V417.12H83.7597C82.6397 417.12 81.773 417.4 81.1597 417.96C80.573 418.493 80.2797 419.227 80.2797 420.16C80.2797 421.04 80.573 421.76 81.1597 422.32C81.773 422.853 82.6397 423.12 83.7597 423.12C84.4797 423.12 85.1197 423 85.6797 422.76C86.2664 422.493 86.7464 422.053 87.1197 421.44C87.493 420.827 87.7064 419.973 87.7597 418.88L89.2797 420.48C89.1464 422 88.773 423.28 88.1597 424.32C87.573 425.36 86.7464 426.16 85.6797 426.72C84.6397 427.28 83.3597 427.56 81.8397 427.56ZM99.6297 427V397.8H106.07V427H99.6297ZM97.0297 402.52V397.8H106.07V402.52H97.0297ZM113.007 427V405.08H119.407V427H113.007ZM110.087 409.8V405.08H119.407V409.8H110.087ZM115.487 402.92C114.287 402.92 113.394 402.613 112.807 402C112.247 401.36 111.967 400.56 111.967 399.6C111.967 398.613 112.247 397.813 112.807 397.2C113.394 396.56 114.287 396.24 115.487 396.24C116.687 396.24 117.567 396.56 118.127 397.2C118.714 397.813 119.007 398.613 119.007 399.6C119.007 400.56 118.714 401.36 118.127 402C117.567 402.613 116.687 402.92 115.487 402.92ZM135.286 427.28C133.073 427.28 131.286 427.013 129.926 426.48C128.566 425.92 127.566 425 126.926 423.72C126.313 422.413 126.006 420.653 126.006 418.44V399.16H131.966V418.68C131.966 419.72 132.233 420.52 132.766 421.08C133.326 421.613 134.113 421.88 135.126 421.88H138.366V427.28H135.286ZM122.686 409.76V405.08H138.366V409.76H122.686ZM152.632 427.76C150.765 427.76 149.112 427.44 147.672 426.8C146.259 426.16 145.072 425.307 144.112 424.24C143.179 423.147 142.459 421.933 141.952 420.6C141.472 419.24 141.232 417.853 141.232 416.44V415.64C141.232 414.173 141.472 412.773 141.952 411.44C142.459 410.08 143.179 408.867 144.112 407.8C145.045 406.733 146.205 405.893 147.592 405.28C149.005 404.64 150.605 404.32 152.392 404.32C154.739 404.32 156.712 404.853 158.312 405.92C159.939 406.96 161.179 408.333 162.032 410.04C162.885 411.72 163.312 413.56 163.312 415.56V417.72H143.912V414.08H159.432L157.352 415.76C157.352 414.453 157.165 413.333 156.792 412.4C156.419 411.467 155.859 410.76 155.112 410.28C154.392 409.773 153.485 409.52 152.392 409.52C151.272 409.52 150.325 409.773 149.552 410.28C148.779 410.787 148.192 411.533 147.792 412.52C147.392 413.48 147.192 414.667 147.192 416.08C147.192 417.387 147.379 418.533 147.752 419.52C148.125 420.48 148.712 421.227 149.512 421.76C150.312 422.293 151.352 422.56 152.632 422.56C153.805 422.56 154.765 422.333 155.512 421.88C156.259 421.427 156.765 420.867 157.032 420.2H162.912C162.592 421.667 161.965 422.973 161.032 424.12C160.099 425.267 158.925 426.16 157.512 426.8C156.099 427.44 154.472 427.76 152.632 427.76ZM149.232 402.52L152.832 394.16H159.392L154.832 402.52H149.232Z" fill="#14171A"/>
</svg>
